<svg width="131" height="35" viewBox="0 0 131 35" fill="none" xmlns="http://www.w3.org/2000/svg">
<path d="M5.10632 4.49623C7.30564 6.44897 8.92613 6.44203 11.0654 4.4726C12.3883 3.24814 13.7043 2.01395 15.1746 0.928474C13.991 2.24745 12.8019 3.56086 11.6251 4.884C10.8741 5.72742 10.453 6.82201 10.4417 7.96037C10.4303 9.09873 10.8296 10.2018 11.5637 11.0605L11.5951 11.0966C11.6968 11.216 11.8227 11.3116 11.964 11.3769C12.1054 11.4421 12.259 11.4755 12.4142 11.4747H20.9289C26.3829 11.4747 27.8313 19.1661 22.8115 21.2537L25.6279 26.6741C28.5544 23.8646 30.2647 19.9866 30.3826 15.8932C30.5005 11.7999 29.0163 7.82648 26.2566 4.84717C24.8901 3.37196 23.2516 2.18521 21.4347 1.35467C19.6177 0.524136 17.6578 0.0660736 15.6669 0.00664153C11.6462 -0.113387 7.74334 1.39758 4.81689 4.20714C4.90559 4.31126 5.00238 4.40793 5.10632 4.49623Z" fill="#6935CF"/>
<path d="M21.639 25.4831C20.7461 23.9111 19.8287 21.6498 18.8635 21.6498V21.6262H16.9086C16.3774 21.6262 15.868 21.841 15.4924 22.2234C15.1168 22.6058 14.9058 23.1244 14.9058 23.6651V28.727H11.9133V23.6401C11.9133 22.2979 12.437 21.0106 13.3691 20.0613C14.3012 19.1121 15.5656 18.5786 16.884 18.5783H20.9154C23.5216 18.5783 23.5216 14.5477 20.9154 14.5477H11.6212V12.26C11.6212 12.1097 11.5896 11.9611 11.5286 11.8243C11.4676 11.6874 11.3786 11.5654 11.2676 11.4664C11.0819 11.301 10.8949 11.137 10.7051 10.9771C9.98361 10.3731 9.07493 10.0494 8.14091 10.0636C7.20688 10.0779 6.30814 10.4292 5.60474 11.055C4.15764 12.3378 2.7665 13.6846 1.19517 14.8479C2.39244 13.5136 3.59791 12.1877 4.78699 10.8451C6.66823 8.72419 6.66687 7.09251 4.80064 4.91321C4.69677 4.78393 4.58409 4.66225 4.46344 4.54907C1.82126 7.22746 0.241259 10.8032 0.0254352 14.5928C-0.190388 18.3824 0.973105 22.1201 3.29353 25.0914C5.61395 28.0627 8.92854 30.0593 12.6037 30.6994C16.279 31.3396 20.057 30.5785 23.2158 28.5616L21.639 25.4831Z" fill="#6935CF"/>
<path d="M50.4553 15.1091H47.7959L46.4853 12.5574C45.7631 11.3065 45.06 9.52192 44.2819 9.52192H42.7242C42.3116 9.52374 41.9164 9.69141 41.6247 9.98841C41.333 10.2854 41.1683 10.6877 41.1665 11.1077V15.1105H38.8115V11.1063C38.8108 10.583 38.9115 10.0647 39.1079 9.58113C39.3043 9.09752 39.5924 8.65811 39.9559 8.28808C40.3194 7.91805 40.751 7.62467 41.226 7.42475C41.701 7.22483 42.2102 7.1223 42.7242 7.12303H45.8955C47.9665 7.12303 47.9665 3.92636 45.8955 3.92636H38.8115V1.53442H45.8955C50.1891 1.53442 51.329 7.58724 47.3781 9.23005L50.4553 15.1091Z" fill="#1E0059"/>
<path d="M65.4809 15.1092H63.126V5.51918C63.126 4.51432 62.9731 3.85136 62.3273 3.85136C61.2447 3.85136 60.2795 5.55393 59.8399 6.26831L54.2167 15.1064H51.4058L57.029 6.26831C58.9662 3.21063 60.2195 1.45386 62.8024 1.45386C64.3983 1.45386 65.4809 2.96185 65.4809 5.51501V15.1092Z" fill="#1E0059"/>
<path d="M64.5811 15.1091V12.7116H72.1852C73.3155 12.6912 74.3927 12.2197 75.185 11.3986C75.9772 10.5776 76.4211 9.47269 76.4211 8.32178C76.4211 7.17086 75.9772 6.06596 75.185 5.24493C74.3927 4.4239 73.3155 3.9524 72.1852 3.93192H67.3797V1.53442H72.1852C73.9377 1.5511 75.6133 2.26959 76.8495 3.53443C78.0856 4.79927 78.7829 6.50875 78.7904 8.29299C78.798 10.0772 78.1151 11.7927 76.8897 13.0684C75.6643 14.344 73.9948 15.0771 72.2425 15.1091H64.5811Z" fill="#1E0059"/>
<path d="M80.7534 1.55389H83.1097V15.1091H80.7534V1.55389Z" fill="#1E0059"/>
<path d="M99.0839 15.1092H96.729V5.51918C96.729 4.51432 96.5761 3.85136 95.9303 3.85136C94.8477 3.85136 93.8826 5.55393 93.443 6.26831L87.8197 15.1064H85.0088L90.632 6.26831C92.5692 3.21063 93.8225 1.45386 96.4054 1.45386C98.0013 1.45386 99.0839 2.96185 99.0839 5.51501V15.1092Z" fill="#1E0059"/>
<path d="M113.881 11.1063C113.881 14.1029 112.4 15.1091 111.488 15.1091C109.626 15.1091 108.942 14.3544 107.309 10.8548L105.41 6.79363C104.839 5.55666 103.243 1.80545 103.339 5.51775V15.1077H100.984V5.51775C100.984 2.51983 102.446 1.53442 103.358 1.53442C105.238 1.53442 105.903 2.26827 107.537 5.76931L109.512 9.98474C110.195 11.5316 111.62 14.5713 111.526 11.1063V3.58446C111.526 3.31531 111.578 3.04876 111.679 2.80005C111.78 2.55134 111.928 2.32533 112.115 2.13495C112.302 1.94457 112.524 1.79354 112.768 1.6905C113.012 1.58746 113.274 1.53442 113.538 1.53442H113.881V11.1063Z" fill="#1E0059"/>
<path d="M120.112 3.93192H115.776V1.53442H126.811V3.93192H122.465V15.1091H120.112V3.93192Z" fill="#1E0059"/>
<path d="M129.665 2.82841C129.486 2.82926 129.309 2.79334 129.144 2.72278C128.822 2.58254 128.565 2.32182 128.427 1.9945C128.289 1.65409 128.289 1.27166 128.427 0.931257C128.495 0.768834 128.594 0.621188 128.716 0.496232C128.839 0.371402 128.984 0.271828 129.144 0.202973C129.309 0.132371 129.487 0.0960083 129.666 0.0960083C129.845 0.0960083 130.023 0.132371 130.188 0.202973C130.51 0.34205 130.767 0.6032 130.904 0.931257C130.973 1.09962 131.009 1.28078 131.007 1.46357C131.009 1.6459 130.973 1.82659 130.904 1.9945C130.836 2.15681 130.738 2.30444 130.615 2.42952C130.492 2.55401 130.347 2.65395 130.188 2.72417C130.022 2.79425 129.845 2.8297 129.665 2.82841ZM129.665 2.57267C129.857 2.57488 130.046 2.52292 130.211 2.42257C130.374 2.32449 130.51 2.18636 130.606 2.0209C130.704 1.85276 130.755 1.6605 130.753 1.46496C130.755 1.26943 130.704 1.07719 130.606 0.909019C130.51 0.743559 130.374 0.605432 130.211 0.507351C130.045 0.409763 129.857 0.358387 129.665 0.358387C129.474 0.358387 129.285 0.409763 129.119 0.507351C128.956 0.605342 128.82 0.743464 128.723 0.909019C128.625 1.07719 128.574 1.26943 128.576 1.46496C128.574 1.6605 128.625 1.85276 128.723 2.0209C128.82 2.18646 128.956 2.32458 129.119 2.42257C129.285 2.52105 129.474 2.57107 129.665 2.56712V2.57267ZM129.211 2.0765V0.810339H129.805C129.868 0.810527 129.931 0.826255 129.987 0.856205C130.051 0.888392 130.103 0.938386 130.139 1.00023C130.176 1.06208 130.193 1.13318 130.191 1.20506C130.193 1.28312 130.172 1.35996 130.131 1.42604C130.095 1.48471 130.045 1.53308 129.985 1.56663C129.926 1.60017 129.859 1.6178 129.791 1.61784H129.332V1.4455H129.742C129.799 1.44534 129.853 1.42296 129.895 1.38296C129.918 1.36004 129.936 1.33229 129.948 1.30159C129.96 1.27089 129.965 1.23796 129.963 1.20506C129.966 1.17309 129.961 1.1409 129.949 1.11116C129.937 1.08143 129.919 1.05501 129.895 1.03411C129.852 1.00037 129.8 0.982249 129.746 0.982681H129.428V2.07094L129.211 2.0765ZM129.933 1.48998L130.247 2.07094H130.005L129.701 1.48442L129.933 1.48998Z" fill="#1E0059"/>
<path d="M120.112 1.53308V3.94031H112.344V3.12585C112.344 2.70366 112.508 2.29875 112.802 2.00008C113.095 1.70142 113.492 1.53345 113.907 1.53308H120.112Z" fill="#1E0059"/>
<path d="M98.7343 8.35309H89.9097V10.7506H98.7343V8.35309Z" fill="#754BE5"/>
<path d="M65.0688 8.35309H56.2441V10.7506H65.0688V8.35309Z" fill="#754BE5"/>
<path d="M44.1566 31.0299C42.6794 31.0329 41.2614 30.4391 40.2138 29.3788C39.1662 28.3186 38.5746 26.8785 38.5688 25.3746C38.5688 22.2391 41.0767 19.686 43.8289 19.686C45.3197 19.686 46.7136 20.4698 47.1887 21.0758V17.3677H49.5641V25.3746C49.5641 28.4948 47.2433 31.0299 44.1566 31.0299ZM44.1566 28.8618C45.8604 28.8618 47.287 27.3593 47.287 25.3746C47.287 23.3899 45.8604 21.8555 44.1566 21.8555C42.4528 21.8555 41.0276 23.3732 41.0276 25.3746C41.0276 27.376 42.4528 28.8618 44.1566 28.8618Z" fill="#1E0059"/>
<path d="M53.743 19.8694V30.7102H51.3662V19.8694H53.743Z" fill="#1E0059"/>
<path d="M62.0337 31.0299C58.1333 31.0299 55.2173 28.0598 55.2173 24.0904C55.2173 20.121 58.1333 17.1842 62.0337 17.1842C65.5559 17.1842 67.9491 19.5859 68.4406 22.9729H65.9464C65.504 20.8381 64.1607 19.3524 62.031 19.3524C59.5395 19.3524 57.6719 21.3885 57.6719 24.0904C57.6719 26.7923 59.5395 28.8618 62.031 28.8618C63.7675 28.8618 65.6351 27.8597 65.9464 26.3253H61.4767V24.2238H68.4569V25.0744C68.4569 28.5407 65.6051 31.0299 62.0337 31.0299Z" fill="#1E0059"/>
<path d="M72.3066 19.8694V30.7102H69.9312V19.8694H72.3066Z" fill="#1E0059"/>
<path d="M81.7623 28.6449V30.713H77.5015C76.6024 30.7112 75.7407 30.3467 75.1051 29.6993C74.4695 29.052 74.1118 28.1746 74.1104 27.2592V19.0188H76.1418V27.2592C76.1407 27.4421 76.1752 27.6233 76.2435 27.7924C76.3117 27.9615 76.4122 28.1152 76.5392 28.2445C76.6662 28.3738 76.8171 28.4761 76.9832 28.5456C77.1494 28.615 77.3274 28.6502 77.507 28.6491L81.7623 28.6449Z" fill="#1E0059"/>
<path d="M83.0728 25.344C83.0728 24.2188 83.4005 23.1189 84.0146 22.1834C84.6286 21.2479 85.5014 20.5188 86.5225 20.0882C87.5436 19.6577 88.6672 19.5451 89.7511 19.7647C90.8351 19.9844 91.8307 20.5263 92.6121 21.322C93.3935 22.1177 93.9256 23.1315 94.1411 24.2351C94.3565 25.3386 94.2456 26.4825 93.8225 27.5219C93.3994 28.5614 92.683 29.4497 91.7639 30.0746C90.8448 30.6996 89.7643 31.033 88.6591 31.0327C87.9251 31.034 87.198 30.8877 86.5195 30.6022C85.8411 30.3168 85.2247 29.8978 84.7057 29.3693C84.1867 28.8408 83.7753 28.2131 83.495 27.5224C83.2148 26.8316 83.0713 26.0914 83.0728 25.344ZM88.6591 28.8645C90.3643 28.8645 91.7895 27.3454 91.7895 25.344C91.7895 23.3426 90.3643 21.8583 88.6591 21.8583C86.954 21.8583 85.5301 23.3565 85.5301 25.344C85.5301 27.3315 86.9554 28.8617 88.6591 28.8617V28.8645Z" fill="#1E0059"/>
<path d="M99.6666 34.0487V31.8764H101.534C102.162 31.8763 102.764 31.6271 103.214 31.1817C103.664 30.7364 103.926 30.13 103.944 29.4914C103.387 30.1585 102.255 31.0202 100.486 31.0202C97.4058 31.0202 95.2256 28.4684 95.2256 25.3315C95.2317 23.8278 95.8235 22.3879 96.871 21.3277C97.9185 20.2676 99.3363 19.6736 100.813 19.6762C103.899 19.6859 106.22 22.2558 106.22 25.344V29.6151C106.22 32.2335 104.909 34.0515 101.533 34.0515L99.6666 34.0487ZM100.813 28.8618C102.517 28.8618 103.944 27.3427 103.944 25.3413C103.944 23.3399 102.517 21.8555 100.813 21.8555C99.1096 21.8555 97.6884 23.3566 97.6884 25.344C97.6884 27.3315 99.1205 28.8618 100.817 28.8618H100.813Z" fill="#1E0059"/>
</svg>
